<svg width="32" height="38" viewBox="0 0 32 38" fill="none" xmlns="http://www.w3.org/2000/svg">
<path d="M5.59961 28.4278C4.26628 23.2461 4.26628 18.0643 5.59961 12.8825C6.93294 8.73712 6.93294 5.10988 5.59961 2.00082M15.5996 28.4278C14.2663 21.1734 14.2663 14.9552 15.5996 9.77347C16.9329 5.62806 16.9329 2.519 15.5996 0.446289M25.5996 28.4278C26.9329 23.2461 26.9329 18.0643 25.5996 12.8825C24.2663 8.73712 24.2663 5.10988 25.5996 2.00082" stroke="#6B7560" stroke-width="1.65"/>
<path d="M30.5996 29.1252C30.5996 33.4179 23.8839 36.8978 15.5996 36.8978C7.31534 36.8978 0.599609 33.4179 0.599609 29.1252C0.599609 24.8325 7.31534 21.3525 15.5996 21.3525C23.8839 21.3525 30.5996 24.8325 30.5996 29.1252Z" fill="#D9D9D9" stroke="#A84A32" stroke-width="1.2"/>
</svg>
