<svg width="196" height="46" viewBox="0 0 196 46" fill="none" xmlns="http://www.w3.org/2000/svg">
<path d="M9 28.4278C7.66667 23.2461 7.66667 18.0643 9 12.8825C10.3333 8.73712 10.3333 5.10988 9 2.00082M19 28.4278C17.6667 21.1734 17.6667 14.9552 19 9.77347C20.3333 5.62806 20.3333 2.519 19 0.446289M29 28.4278C30.3333 23.2461 30.3333 18.0643 29 12.8825C27.6667 8.73712 27.6667 5.10988 29 2.00082" stroke="#6B7560" stroke-width="1.65"/>
<ellipse cx="19" cy="37.755" rx="14" ry="7.46175" fill="#FAF6F1"/>
<ellipse cx="19" cy="29.1252" rx="15" ry="7.77265" fill="#D9D9D9" stroke="#A84A32" stroke-width="1.2"/>
<ellipse opacity="0.2" cx="12" cy="41.7306" rx="4" ry="3.88633" fill="white"/>
<path d="M49.8338 25.6452V23.1452H50.6222C51.0152 23.1452 51.3324 23.0978 51.5739 23.0031C51.8153 22.9037 52.0071 22.7593 52.1491 22.5699C52.2959 22.3757 52.419 22.1343 52.5185 21.8454L52.696 21.3696L47.4119 10.9008H50.5938L54.017 18.0599L56.8793 10.9008H60.0185L55.0043 22.5912C54.7628 23.1309 54.4763 23.6328 54.1449 24.0969C53.8182 24.5609 53.3991 24.9349 52.8878 25.219C52.3764 25.5031 51.723 25.6452 50.9276 25.6452H49.8338ZM66.8544 18.8483V21.2488H60.9382V18.8483H66.8544ZM63.2749 14.5372V25.4463H60.2564V14.5372H63.2749ZM70.1214 25.6594C69.0419 25.6594 68.1091 25.4179 67.3232 24.9349C66.5372 24.452 65.9311 23.7844 65.505 22.9321C65.0836 22.0798 64.8729 21.1021 64.8729 19.9988C64.8729 18.8956 65.0836 17.9226 65.505 17.0798C65.9311 16.237 66.5372 15.5789 67.3232 15.1054C68.1091 14.6319 69.0419 14.3952 70.1214 14.3952C71.2057 14.3952 72.1385 14.6319 72.9197 15.1054C73.7057 15.5789 74.3094 16.237 74.7308 17.0798C75.157 17.9226 75.37 18.8956 75.37 19.9988C75.37 21.1021 75.157 22.0798 74.7308 22.9321C74.3094 23.7844 73.7057 24.452 72.9197 24.9349C72.1385 25.4179 71.2057 25.6594 70.1214 25.6594ZM70.1214 23.2162C70.6849 23.2162 71.1394 23.0789 71.4851 22.8042C71.8307 22.5249 72.084 22.1437 72.245 21.6608C72.406 21.1731 72.4865 20.6191 72.4865 19.9988C72.4865 19.3786 72.406 18.8293 72.245 18.3511C72.084 17.8682 71.8307 17.4894 71.4851 17.2148C71.1394 16.9401 70.6849 16.8028 70.1214 16.8028C69.5627 16.8028 69.1082 16.9401 68.7578 17.2148C68.4074 17.4846 68.1494 17.8587 67.9837 18.3369C67.8227 18.8151 67.7422 19.3691 67.7422 19.9988C67.7422 20.6238 67.8227 21.1778 67.9837 21.6608C68.1494 22.1437 68.4074 22.5249 68.7578 22.8042C69.1082 23.0789 69.5627 23.2162 70.1214 23.2162ZM76.3697 16.9165V14.5372H86.256V16.9165H82.7404V25.4463H79.8569V16.9165H76.3697ZM95.6825 18.7844V21.1636H89.9865V18.7844H95.6825ZM90.9808 14.5372V25.4463H88.0902V14.5372H90.9808ZM97.5788 14.5372V25.4463H94.7095V14.5372H97.5788ZM103.037 25.6523C102.341 25.6523 101.721 25.5315 101.176 25.29C100.632 25.0438 100.201 24.6816 99.8835 24.2034C99.571 23.7204 99.4148 23.1191 99.4148 22.3994C99.4148 21.7934 99.526 21.2844 99.7486 20.8724C99.9711 20.4605 100.274 20.1291 100.658 19.8781C101.041 19.6272 101.477 19.4378 101.964 19.3099C102.457 19.1821 102.973 19.0921 103.513 19.04C104.147 18.9738 104.659 18.9122 105.047 18.8554C105.435 18.7938 105.717 18.7039 105.892 18.5855C106.067 18.4671 106.155 18.2919 106.155 18.0599V18.0173C106.155 17.5675 106.013 17.2195 105.729 16.9733C105.449 16.7271 105.052 16.604 104.536 16.604C103.991 16.604 103.558 16.7247 103.236 16.9662C102.914 17.2029 102.701 17.5012 102.597 17.8611L99.7983 17.6338C99.9403 16.9709 100.22 16.398 100.636 15.915C101.053 15.4273 101.59 15.0533 102.249 14.7929C102.911 14.5277 103.679 14.3952 104.55 14.3952C105.156 14.3952 105.736 14.4662 106.29 14.6082C106.848 14.7503 107.343 14.9704 107.774 15.2687C108.21 15.567 108.553 15.9506 108.804 16.4193C109.055 16.8833 109.18 17.4397 109.18 18.0883V25.4463H106.311V23.9335H106.226C106.051 24.2744 105.816 24.5751 105.523 24.8355C105.229 25.0912 104.876 25.2924 104.464 25.4392C104.053 25.5812 103.577 25.6523 103.037 25.6523ZM103.903 23.5642C104.348 23.5642 104.741 23.4766 105.082 23.3014C105.423 23.1215 105.691 22.88 105.885 22.577C106.079 22.2739 106.176 21.9307 106.176 21.5471V20.3895C106.081 20.451 105.951 20.5078 105.786 20.5599C105.625 20.6073 105.442 20.6523 105.239 20.6949C105.035 20.7327 104.831 20.7683 104.628 20.8014C104.424 20.8298 104.24 20.8559 104.074 20.8795C103.719 20.9316 103.409 21.0145 103.143 21.1281C102.878 21.2417 102.672 21.3956 102.526 21.5898C102.379 21.7791 102.305 22.0159 102.305 22.3C102.305 22.7119 102.455 23.0268 102.753 23.2446C103.056 23.4577 103.439 23.5642 103.903 23.5642ZM117.92 25.4463V16.9094H115.874C115.32 16.9094 114.899 17.0372 114.61 17.2929C114.321 17.5486 114.179 17.8516 114.184 18.202C114.179 18.5571 114.317 18.8577 114.596 19.104C114.88 19.3454 115.297 19.4662 115.846 19.4662H118.928V21.5116H115.846C114.913 21.5116 114.106 21.3696 113.424 21.0855C112.742 20.8014 112.217 20.406 111.847 19.8994C111.478 19.3881 111.296 18.7938 111.3 18.1167C111.296 17.4065 111.478 16.7839 111.847 16.2488C112.217 15.7091 112.745 15.29 113.431 14.9917C114.122 14.6887 114.937 14.5372 115.874 14.5372H120.739V25.4463H117.92ZM110.988 25.4463L114.021 19.7645H116.911L113.886 25.4463H110.988Z" fill="#2C2416"/>
<path d="M132.321 25.8213V14.9122H134.892V19.3156H135.83L139.111 14.9122H142.207L138.166 20.2673L142.25 25.8213H139.139L136.149 21.7091H134.892V25.8213H132.321ZM145.423 29.9122C145.073 29.9122 144.748 29.8838 144.45 29.827C144.156 29.7749 143.922 29.7133 143.747 29.6423L144.343 27.6395C144.717 27.7484 145.051 27.8005 145.345 27.7957C145.638 27.791 145.896 27.6987 146.119 27.5187C146.346 27.3435 146.538 27.05 146.694 26.6381L146.914 26.0486L142.958 14.9122H145.686L148.2 23.1508H148.314L150.835 14.9122H153.569L149.201 27.1423C148.998 27.72 148.728 28.2148 148.392 28.6267C148.056 29.0434 147.644 29.3606 147.156 29.5784C146.673 29.8009 146.095 29.9122 145.423 29.9122ZM157.451 14.9122L159.652 18.9392L161.89 14.9122H164.61L161.321 20.3667L164.667 25.8213H161.961L159.652 21.8937L157.365 25.8213H154.638L157.962 20.3667L154.723 14.9122H157.451ZM174.091 19.3014V21.4108H168.282V19.3014H174.091ZM169.077 14.9122V25.8213H166.598V14.9122H169.077ZM175.775 14.9122V25.8213H173.303V14.9122H175.775ZM184.825 25.8213V17.0003H182.495C181.903 17.0003 181.449 17.1376 181.131 17.4122C180.814 17.6868 180.658 18.0277 180.663 18.4349C180.658 18.8421 180.807 19.1783 181.11 19.4434C181.413 19.7086 181.846 19.8412 182.41 19.8412H185.634V21.7162H182.41C181.539 21.7162 180.786 21.5789 180.151 21.3042C179.517 21.0296 179.029 20.6414 178.688 20.1395C178.347 19.6376 178.177 19.0505 178.177 18.3781C178.177 17.6773 178.35 17.0689 178.695 16.5528C179.046 16.032 179.543 15.6295 180.187 15.3454C180.835 15.0566 181.605 14.9122 182.495 14.9122H187.232V25.8213H184.825ZM177.779 25.8213L180.826 20.2247H183.362L180.308 25.8213H177.779Z" fill="#C45C3E"/>
</svg>
